<svg width="30" height="30" viewBox="0 0 30 30" fill="none" xmlns="http://www.w3.org/2000/svg">
<rect width="30" height="30" fill="#00715D"/>
<path d="M7.7083 6.475C7.94163 6.475 8.1833 6.54167 8.4333 6.675C8.69997 6.79167 8.89997 6.95 9.0333 7.15L15.1083 16.5L13.8583 16.45L20.0833 7.15C20.4 6.7 20.8083 6.475 21.3083 6.475C21.7083 6.475 22.0666 6.61667 22.3833 6.9C22.7 7.18333 22.8583 7.55 22.8583 8V22.475C22.8583 22.9083 22.7166 23.275 22.4333 23.575C22.15 23.8583 21.775 24 21.3083 24C20.8416 24 20.4583 23.8583 20.1583 23.575C19.875 23.275 19.7333 22.9083 19.7333 22.475V10.7L20.7083 10.925L15.6083 18.7C15.4583 18.8833 15.2666 19.0417 15.0333 19.175C14.8166 19.3083 14.5916 19.3667 14.3583 19.35C14.1416 19.3667 13.9166 19.3083 13.6833 19.175C13.4666 19.0417 13.2833 18.8833 13.1333 18.7L8.3583 11.15L9.0083 9.825V22.475C9.0083 22.9083 8.87497 23.275 8.6083 23.575C8.34163 23.8583 7.99163 24 7.5583 24C7.14163 24 6.79997 23.8583 6.5333 23.575C6.26663 23.275 6.1333 22.9083 6.1333 22.475V8C6.1333 7.58333 6.2833 7.225 6.5833 6.925C6.89997 6.625 7.27497 6.475 7.7083 6.475Z" fill="white"/>
</svg>
