<svg width="40" height="40" viewBox="0 0 40 40" fill="none" xmlns="http://www.w3.org/2000/svg">
<g clip-path="url(#clip0_3279_847)">
<path d="M39.9613 16.5412C39.986 16.4453 39.9994 16.344 39.9994 16.2495C39.9994 7.13526 33.0744 0 24.9998 0H23.1249C22.6198 0 22.1716 0.323584 22.0127 0.803023L17.279 15.0777H7.11583L5.60564 10.1695C5.02284 8.27562 3.19985 6.95292 1.17233 6.95292C0.52516 6.95292 0.000488281 7.47759 0.000488281 8.12476C0.000488281 8.77193 0.52516 9.2966 1.17233 9.2966C2.16464 9.2966 3.08704 9.95362 3.36555 10.8587C5.30596 17.165 5.37658 17.287 7.34621 22.802C8.06588 24.8172 10.33 26.1711 12.98 26.1711H17.019L15.9249 28.9059C12.5163 28.331 9.45334 30.9724 9.45334 34.374C9.45334 37.4508 11.9448 39.9988 15 39.9988C17.6854 39.9988 19.8948 38.0427 20.4232 35.5458H24.5765C24.7963 36.5846 25.3062 37.5449 26.0675 38.3251C28.2467 40.558 31.7521 40.5587 33.9318 38.3251C34.973 37.2582 35.5464 35.855 35.5464 34.374C35.5464 30.9718 32.4828 28.3312 29.0748 28.9059L27.9807 26.1711H32.0198C34.667 26.1711 36.9289 24.8201 37.6512 22.8086C40.0728 16.2605 39.937 16.6359 39.9613 16.5412ZM23.9709 2.34368H24.9998C31.6192 2.34368 37.0681 7.9561 37.6113 15.0777H19.7482L23.9709 2.34368ZM15 37.6551C13.2638 37.6551 11.797 36.1525 11.797 34.374C11.797 32.6079 13.2339 31.171 15 31.171C16.7662 31.171 18.2031 32.6079 18.2031 34.374C18.2031 36.1525 16.7363 37.6551 15 37.6551ZM33.2026 34.374C33.2026 36.1525 31.7359 37.6551 29.9996 37.6551C28.2633 37.6551 26.7966 36.1525 26.7966 34.374C26.7966 32.6079 28.2335 31.171 29.9996 31.171C31.7657 31.171 33.2026 32.6079 33.2026 34.374ZM26.899 29.777C25.7345 30.565 24.885 31.7837 24.5787 33.2022H20.4211C20.1147 31.7837 19.2652 30.565 18.1008 29.777L19.5433 26.1711H25.4564L26.899 29.777ZM35.4509 22.0014C34.9911 23.2429 33.3639 23.8274 32.0198 23.8274C31.4089 23.8274 13.6609 23.8274 12.98 23.8274C11.3698 23.8274 9.92863 23.0646 9.55333 22.0137L7.91322 17.4214H37.1448L35.4509 22.0014Z" fill="#15171A"/>
</g>
<defs>
<clipPath id="clip0_3279_847">
<rect width="40" height="40" fill="white"/>
</clipPath>
</defs>
</svg>
