<svg width="40" height="40" viewBox="0 0 40 40" fill="none" xmlns="http://www.w3.org/2000/svg">
<g clip-path="url(#clip0_3279_871)">
<path d="M21.8771 8.07506H26.6552C27.3023 8.07506 27.8269 7.55044 27.8269 6.90333C27.8269 6.25622 27.3023 5.7316 26.6552 5.7316H24.3797L27.5552 1.92301C28.1898 1.16193 27.6477 0.000976562 26.6552 0.000976562H22.3115C21.6644 0.000976562 21.1398 0.525599 21.1398 1.17271C21.1398 1.81982 21.6644 2.34444 22.3115 2.34444H24.1527L20.9772 6.15303C20.3426 6.91411 20.8846 8.07506 21.8771 8.07506Z" fill="#15171A"/>
<path d="M31.2455 11.7764H34.3756C35.0227 11.7764 35.5473 11.2518 35.5473 10.6047C35.5473 9.9576 35.0227 9.43298 34.3756 9.43298H33.7585L35.2732 7.62812C35.9113 6.86767 35.3698 5.70312 34.3756 5.70312H31.5301C30.883 5.70312 30.3584 6.22775 30.3584 6.87486C30.3584 7.52196 30.883 8.04659 31.5301 8.04659H31.8626L30.348 9.85144C29.7099 10.6119 30.2513 11.7764 31.2455 11.7764Z" fill="#15171A"/>
<path d="M29.3763 14.4521C23.5615 14.4521 18.8307 19.1829 18.8307 24.9977C18.8307 26.5725 19.1783 28.0675 19.7998 29.4109C16.3612 29.0526 13.8347 26.0149 14.1247 22.5566C14.2881 20.6077 15.318 18.8689 16.9503 17.7863C17.754 17.2533 17.6034 16.0278 16.6942 15.7054C9.01966 12.9846 0.726849 18.2765 0.0438865 26.4197C-0.53198 33.2869 4.62785 39.3794 11.4955 39.9553C16.3473 40.3625 20.9771 37.8417 23.3641 33.6565C25.0708 34.8451 27.1434 35.5433 29.3763 35.5433C35.2342 35.5433 40 30.8126 40 24.9977C40 19.1829 35.2342 14.4521 29.3763 14.4521ZM11.6914 37.62C6.11595 37.1523 1.91131 32.1937 2.37922 26.6156C2.86245 20.8535 8.12211 16.6766 13.8516 17.4224C11.1485 20.5652 10.9842 25.3566 13.8152 28.7059C15.728 30.9688 18.532 32.0115 21.2838 31.7514C21.3737 31.8589 21.4655 31.9649 21.5595 32.0688C19.7258 35.6801 15.844 37.9675 11.6914 37.62ZM29.3763 33.1998C27.4818 33.1998 25.7356 32.554 24.3455 31.4712C24.4838 31.0617 24.6024 30.642 24.699 30.2126C24.9106 29.2719 23.9538 28.4901 23.0736 28.8876C22.828 28.9985 22.5756 29.0932 22.3183 29.1715C21.5919 27.948 21.1742 26.5208 21.1742 24.9977C21.1742 20.4751 24.8536 16.7956 29.3763 16.7956C33.9421 16.7956 37.6565 20.4751 37.6565 24.9977C37.6565 29.5204 33.9421 33.1998 29.3763 33.1998Z" fill="#15171A"/>
<path d="M32.4228 23.8266H30.5481V20.6239C30.5481 19.9768 30.0234 19.4521 29.3763 19.4521C28.7292 19.4521 28.2046 19.9768 28.2046 20.6239V24.9983C28.2046 25.6454 28.7292 26.1701 29.3763 26.1701H32.4228C33.0699 26.1701 33.5946 25.6454 33.5946 24.9983C33.5946 24.3512 33.0699 23.8266 32.4228 23.8266Z" fill="#15171A"/>
</g>
<defs>
<clipPath id="clip0_3279_871">
<rect width="40" height="40" fill="white"/>
</clipPath>
</defs>
</svg>
