<svg width="40" height="40" viewBox="0 0 40 40" fill="none" xmlns="http://www.w3.org/2000/svg">
<g clip-path="url(#clip0_3279_742)">
<path d="M33.8685 25.5141C37.3109 25.214 39.9999 22.8556 39.9999 19.9998C39.9999 17.144 37.3109 14.7856 33.8685 14.4855C32.5339 11.1323 30.0096 8.35829 26.793 6.71135C26.7071 3.04084 23.7156 0 20.0001 0C16.2874 0 13.2931 3.03748 13.2072 6.71143C9.99056 8.35837 7.46628 11.1325 6.13176 14.4856C2.68929 14.7856 0.000244141 17.144 0.000244141 19.9998C0.000244141 22.8559 2.68968 25.2144 6.13246 25.5142C7.24238 28.2961 9.1947 30.7057 11.6755 32.3822C9.66165 33.9658 8.1637 36.0724 7.38034 38.4629C7.17878 39.0779 7.51401 39.7398 8.12901 39.9414C8.744 40.1429 9.40595 39.8077 9.60751 39.1927C10.3472 36.9356 11.8758 34.9832 13.9417 33.6389C17.932 35.4173 22.4495 35.3112 26.2732 33.5404C28.4182 34.8864 30.0016 36.8736 30.7613 39.1927C30.9629 39.8077 31.6247 40.1428 32.2398 39.9414C32.8549 39.7398 33.1901 39.078 32.9886 38.4629C32.1812 35.9989 30.6234 33.8455 28.5232 32.2495C30.8413 30.636 32.7553 28.3181 33.8685 25.5141ZM37.6562 19.9998C37.6562 21.3688 36.3658 22.5697 34.6161 23.0168C35.0234 21.0354 35.0243 18.9685 34.6161 16.983C36.3658 17.43 37.6562 18.6309 37.6562 19.9998ZM20.0001 2.34373C22.2558 2.34373 24.1251 4.05895 24.4143 6.27503C21.6118 6.51589 19.2902 8.45259 18.4958 11.0692C16.759 10.4516 15.547 8.79852 15.547 6.87487C15.547 4.37645 17.5446 2.34373 20.0001 2.34373ZM2.34398 19.9998C2.34398 18.6309 3.63436 17.43 5.38411 16.9829C4.97677 18.9643 4.97591 21.0312 5.38411 23.0167C3.63436 22.5697 2.34398 21.3688 2.34398 19.9998ZM25.7872 31.1707C19.0452 34.6725 10.6551 31.4714 8.06823 23.9893C6.18902 18.3673 8.49807 12.1921 13.6001 9.17071C14.4554 11.5676 16.6157 13.353 19.2818 13.6336C19.9273 13.7015 20.5045 13.2318 20.5703 12.5873C20.8145 10.198 22.9021 8.42415 25.3369 8.60798C31.0646 11.2951 33.9701 17.8913 31.9319 23.9892C30.799 27.2737 28.5248 29.7495 25.7872 31.1707Z" fill="#15171A"/>
<path d="M17.1231 18.6189C17.5807 18.1613 17.5807 17.4193 17.1231 16.9617C15.4439 15.2824 12.7258 15.2822 11.0464 16.9617C10.5887 17.4193 10.5887 18.1613 11.0464 18.6189C11.5039 19.0766 12.246 19.0766 12.7036 18.6189C13.467 17.8556 14.7024 17.8556 15.4657 18.6189C15.9234 19.0765 16.6654 19.0766 17.1231 18.6189Z" fill="#15171A"/>
<path d="M28.9981 16.9617C27.3189 15.2824 24.6008 15.2822 22.9214 16.9617C22.4637 17.4193 22.4637 18.1613 22.9214 18.6189C23.3789 19.0766 24.121 19.0766 24.5786 18.6189C25.342 17.8556 26.5774 17.8556 27.3407 18.6189C27.7983 19.0765 28.5403 19.0767 28.998 18.6189C29.4557 18.1613 29.4557 17.4193 28.9981 16.9617Z" fill="#15171A"/>
<path d="M22.2652 24.7963C21.0163 26.0452 18.9842 26.0452 17.7353 24.7963C17.2777 24.3388 16.5357 24.3387 16.078 24.7963C15.6205 25.254 15.6205 25.9959 16.078 26.4536C18.2408 28.6163 21.7598 28.6163 23.9225 26.4536C24.3802 25.9959 24.3802 25.254 23.9225 24.7963C23.4648 24.3388 22.7229 24.3388 22.2652 24.7963Z" fill="#15171A"/>
</g>
<defs>
<clipPath id="clip0_3279_742">
<rect width="40" height="40" fill="white"/>
</clipPath>
</defs>
</svg>
