<svg width="40" height="40" viewBox="0 0 40 40" fill="none" xmlns="http://www.w3.org/2000/svg">
<path d="M32.3508 8.05617C32.4482 7.67461 32.4219 7.9093 32.4219 2.5C32.4219 1.19156 31.2676 0 30 0H10C8.73242 0 7.57812 1.19156 7.57812 2.5C7.57812 7.93367 7.55109 7.67195 7.64922 8.05617C6.51953 8.70578 5.70312 9.93766 5.70312 11.25V36.25C5.70312 38.2126 7.4532 40 9.375 40H30.625C32.5468 40 34.2969 38.2499 34.2969 36.3281V11.25C34.2969 9.93766 33.4805 8.70578 32.3508 8.05617ZM30.0781 2.50891V7.48367C30.0643 7.51672 30.0167 7.5643 29.9837 7.57812H26.7969V2.34375H29.9552C30.0039 2.37586 30.0673 2.4593 30.0781 2.50891ZM21.1719 7.57812V2.34375H24.4531V7.57812H21.1719ZM15.5469 7.57812V2.34375H18.8281V7.57812H15.5469ZM9.92188 2.50891C9.93273 2.45922 9.99609 2.37586 10.0448 2.34375H13.2031V7.57812H10.0163C9.98328 7.5643 9.9357 7.51672 9.92188 7.48367V2.50891ZM31.9531 36.3281C31.9531 36.9736 31.2705 37.6562 30.625 37.6562H9.375C8.75437 37.6562 8.04688 36.9071 8.04688 36.25V11.25C8.04688 10.6045 8.72953 9.92188 9.375 9.92188H30.625C31.2705 9.92188 31.9531 10.6045 31.9531 11.25V36.3281Z" fill="#15171A"/>
<path d="M26.8741 18.3835C25.2765 17.3782 23.077 17.5298 21.2585 18.5598C21.2269 17.5968 21.0397 16.3346 20.4231 15.1013C20.1337 14.5224 19.4299 14.2875 18.8509 14.5772C18.272 14.8666 18.0374 15.5706 18.3268 16.1494C18.7693 17.0344 18.8976 17.9652 18.9176 18.6631C17.0665 17.5407 14.7754 17.3455 13.1258 18.3835C11.8936 19.1589 11.1401 20.6032 11.0043 22.4503C10.8843 24.0821 11.2797 25.8946 12.0895 27.4232C13.7333 30.5264 17.4737 31.7388 20.0001 30.6892C22.5258 31.7386 26.267 30.5262 27.9106 27.4232C28.7203 25.8946 29.1158 24.0821 28.9958 22.4503C28.8598 20.6032 28.1064 19.1589 26.8741 18.3835ZM25.8394 26.3261C24.6601 28.5524 21.8971 29.1846 20.6241 28.3835C20.2425 28.1435 19.7572 28.1435 19.3758 28.3835C18.1029 29.1845 15.3398 28.5524 14.1604 26.3261C12.971 24.0807 13.0748 21.1847 14.374 20.3672C15.5126 19.6509 17.845 20.1804 19.0335 21.9132C19.4974 22.5894 20.4996 22.5935 20.9663 21.9132C22.1547 20.1806 24.4872 19.6507 25.6258 20.3672C26.9251 21.1847 27.0289 24.0807 25.8394 26.3261Z" fill="#15171A"/>
<path d="M17.854 22.9902C17.2068 22.9902 16.6821 23.5149 16.6821 24.1621V24.7008C16.6821 25.348 17.2068 25.8727 17.854 25.8727C18.5012 25.8727 19.0259 25.348 19.0259 24.7008V24.1621C19.0259 23.5149 18.5012 22.9902 17.854 22.9902Z" fill="#15171A"/>
<path d="M22.1631 22.9902C21.5159 22.9902 20.9912 23.5149 20.9912 24.1621V24.7008C20.9912 25.348 21.5159 25.8727 22.1631 25.8727C22.8103 25.8727 23.335 25.348 23.335 24.7008V24.1621C23.335 23.5149 22.8103 22.9902 22.1631 22.9902Z" fill="#15171A"/>
</svg>
