<svg width="40" height="40" viewBox="0 0 40 40" fill="none" xmlns="http://www.w3.org/2000/svg">
<g clip-path="url(#clip0_3279_796)">
<path d="M39.9535 1.49549C40.2059 0.612942 39.388 -0.206175 38.5045 0.0464739C22.6232 4.58978 23.6903 4.28424 23.6445 4.29768C23.4975 4.33986 23.3559 4.41408 23.2373 4.50931C23.1664 4.56619 24.0017 3.7377 0.344522 27.3138C-0.114215 27.7709 -0.114996 28.5143 0.343115 28.9724L11.0276 39.6569C11.4848 40.1142 12.2282 40.115 12.6862 39.6554C36.9702 15.2879 35.5819 16.7708 35.7023 16.3553C35.7666 16.134 39.9508 1.50479 39.9535 1.49549ZM35.3133 3.39716L36.6028 4.68673L33.9977 13.7932L26.2067 6.00224L35.3133 3.39716ZM6.59348 24.3951L23.969 7.07908L27.6293 10.7394L10.2836 28.0851L6.59348 24.3951ZM11.8547 37.1696L2.83031 28.1453L4.93345 26.0494L13.9506 35.0665L11.8547 37.1696ZM15.6049 33.4064L11.9408 29.7423L29.2866 12.3966L32.9209 16.0309L15.6049 33.4064Z" fill="#15171A"/>
</g>
<defs>
<clipPath id="clip0_3279_796">
<rect width="40" height="40" fill="white"/>
</clipPath>
</defs>
</svg>
