<svg width="40" height="40" viewBox="0 0 40 40" fill="none" xmlns="http://www.w3.org/2000/svg">
<g clip-path="url(#clip0_3279_820)">
<path d="M33.8649 25.5147C37.3088 25.2158 39.9994 22.8569 39.9994 20.0002C39.9994 17.145 37.3114 14.787 33.87 14.4863C33.2379 12.8961 32.3294 11.4163 31.1715 10.1102V1.17266C31.1715 0.377841 30.3959 -0.186127 29.6402 0.0573034L22.0809 2.49317C20.8051 1.78382 19.2302 1.76413 17.919 2.49317L10.3596 0.0573034C9.60146 -0.186908 8.82835 0.380341 8.82835 1.17266V10.1103C7.688 11.399 6.76787 12.8922 6.13195 14.486C2.68947 14.786 0.000488281 17.1444 0.000488281 20.0002C0.000488281 22.8559 2.68924 25.2142 6.13148 25.5144C7.26496 28.3708 9.22061 30.74 11.6705 32.3864C9.65919 33.9698 8.16306 36.0748 7.38043 38.4629C7.13145 39.2228 7.70058 40 8.49422 40C8.98702 40 9.44576 39.6865 9.60755 39.1927C10.3468 36.9366 11.8749 34.9848 13.94 33.6401C17.8397 35.3704 22.3493 35.3614 26.2696 33.5386C28.4163 34.8845 30.0007 36.8726 30.7609 39.1927C30.9227 39.6866 31.3814 40 31.8742 40C32.6689 40 33.2367 39.2218 32.988 38.4631C32.1799 35.9966 30.6199 33.8415 28.5167 32.2451C30.8979 30.5838 32.7742 28.2473 33.8649 25.5147ZM37.6557 20.0002C37.6557 21.3694 36.3649 22.5704 34.6148 23.0173C35.0092 21.104 35.0379 19.0435 34.615 16.9832C36.365 17.4302 37.6557 18.6311 37.6557 20.0002ZM23.8674 4.37983L28.8278 2.78144V9.03157L24.0946 7.5524C24.418 6.53766 24.3615 5.39699 23.8674 4.37983ZM21.953 6.25064C21.953 6.71781 21.7859 7.15881 21.5026 7.49677C20.7194 8.4394 19.2804 8.43909 18.4975 7.49693C18.2203 7.1667 18.0469 6.7268 18.0469 6.25064C18.0469 5.17372 18.9231 4.29757 20 4.29757C21.077 4.29757 21.953 5.17372 21.953 6.25064ZM11.1721 2.78144L16.1325 4.37983C15.6574 5.35816 15.5689 6.49649 15.9053 7.55247L11.1721 9.03165V2.78144ZM2.34425 20.0002C2.34425 18.6313 3.6346 17.4305 5.38432 16.9834C4.97698 18.9646 4.97612 21.0315 5.38432 23.017C3.6346 22.57 2.34425 21.3692 2.34425 20.0002ZM20 32.578C18.0111 32.578 16.1063 32.1125 14.4067 31.2699C14.3915 31.262 14.3762 31.2543 14.3606 31.2471C7.00802 27.5647 5.10175 17.8704 10.5743 11.6738L17.2839 9.5771C18.866 10.8714 21.134 10.8714 22.7162 9.5771L29.4259 11.6739C31.4611 13.9746 32.5777 16.9148 32.5777 20.0002C32.5777 26.9357 26.9354 32.578 20 32.578Z" fill="#15171A"/>
<path d="M17.1231 18.6188C17.5808 18.1612 17.5808 17.4193 17.1231 16.9616C15.444 15.2824 12.726 15.2822 11.0466 16.9616C10.589 17.4193 10.589 18.1612 11.0466 18.6188C11.5042 19.0765 12.2462 19.0765 12.7038 18.6188C13.4672 17.8556 14.7025 17.8555 15.4658 18.6188C15.9235 19.0763 16.6654 19.0765 17.1231 18.6188Z" fill="#15171A"/>
<path d="M28.9979 16.9616C27.3187 15.2824 24.6008 15.2822 22.9214 16.9616C22.4637 17.4193 22.4637 18.1612 22.9214 18.6188C23.3789 19.0765 24.1209 19.0765 24.5786 18.6188C25.3419 17.8556 26.5773 17.8555 27.3406 18.6188C27.7982 19.0764 28.5401 19.0766 28.9978 18.6188C29.4555 18.1613 29.4555 17.4193 28.9979 16.9616Z" fill="#15171A"/>
<path d="M22.2648 24.7963C21.0159 26.0452 18.9839 26.0452 17.735 24.7963C17.2774 24.3388 16.5354 24.3387 16.0778 24.7963C15.6202 25.254 15.6202 25.9959 16.0778 26.4535C18.2405 28.6161 21.7593 28.6161 23.922 26.4535C24.3797 25.9959 24.3797 25.254 23.922 24.7963C23.4644 24.3388 22.7224 24.3387 22.2648 24.7963Z" fill="#15171A"/>
</g>
<defs>
<clipPath id="clip0_3279_820">
<rect width="40" height="40" fill="white"/>
</clipPath>
</defs>
</svg>
